<svg width="286" height="142" viewBox="0 0 286 142" fill="none" xmlns="http://www.w3.org/2000/svg">
<g filter="url(#filter0_g_13_3814)">
<path d="M142.603 1.50293C181.707 1.50293 217.065 9.31788 242.614 21.9121C268.22 34.5348 283.703 51.8038 283.703 70.6025C283.703 89.4012 268.22 106.67 242.614 119.293C217.065 131.887 181.707 139.702 142.603 139.702C103.499 139.702 68.1408 131.887 42.5923 119.293C16.9862 106.67 1.50342 89.4012 1.50342 70.6025C1.50342 51.8038 16.9862 34.5348 42.5923 21.9121C68.1408 9.31788 103.499 1.50293 142.603 1.50293Z" stroke="#2683EB" stroke-width="1.8"/>
</g>
<path d="M9.97303 74.7845C9.48769 74.7845 9.10036 74.6539 8.81103 74.3925C8.52169 74.1312 8.37703 73.7299 8.37703 73.1885C8.37703 73.0112 8.37703 72.8385 8.37703 72.6705C8.38636 72.4932 8.39103 72.2692 8.39103 71.9985V68.6945H7.22903V68.0785L8.47503 67.9245L8.83903 66.0485H9.67903L9.59503 67.9525H11.485V68.6945H9.58103V73.0345C9.58103 73.3892 9.65103 73.6505 9.79103 73.8185C9.93103 73.9772 10.1177 74.0565 10.351 74.0565C10.5097 74.0565 10.659 74.0239 10.799 73.9585C10.9484 73.8932 11.1117 73.7999 11.289 73.6785L11.625 74.0425C11.2424 74.5372 10.6917 74.7845 9.97303 74.7845ZM14.8618 68.4145C14.6004 68.4145 14.3344 68.4892 14.0638 68.6385C13.8024 68.7879 13.5738 69.0259 13.3778 69.3525C13.1911 69.6792 13.0698 70.1132 13.0138 70.6545H15.5618C15.8978 70.6545 16.1171 70.5845 16.2198 70.4445C16.3318 70.3045 16.3878 70.1319 16.3878 69.9265C16.3878 69.6559 16.3178 69.4085 16.1778 69.1845C16.0471 68.9512 15.8651 68.7645 15.6318 68.6245C15.4078 68.4845 15.1511 68.4145 14.8618 68.4145ZM14.8478 74.7845C13.9051 74.7845 13.1491 74.4812 12.5798 73.8745C12.0104 73.2585 11.7258 72.4139 11.7258 71.3405C11.7258 70.6219 11.8704 69.9965 12.1598 69.4645C12.4584 68.9325 12.8504 68.5172 13.3358 68.2185C13.8304 67.9199 14.3671 67.7705 14.9458 67.7705C15.4311 67.7705 15.8698 67.8779 16.2618 68.0925C16.6538 68.3072 16.9664 68.6152 17.1998 69.0165C17.4331 69.4085 17.5498 69.8892 17.5498 70.4585C17.5498 70.6172 17.5404 70.7665 17.5218 70.9065C17.5031 71.0372 17.4798 71.1492 17.4518 71.2425H12.9858C13.0044 72.1012 13.2191 72.7545 13.6298 73.2025C14.0404 73.6505 14.5818 73.8745 15.2538 73.8745C15.7018 73.8745 16.0751 73.7859 16.3738 73.6085C16.6724 73.4219 16.9478 73.1839 17.1998 72.8945L17.5358 73.1605C17.2744 73.6552 16.9198 74.0519 16.4718 74.3505C16.0238 74.6399 15.4824 74.7845 14.8478 74.7845ZM21.4105 74.7845C20.4491 74.7845 19.6838 74.4719 19.1145 73.8465C18.5451 73.2212 18.2605 72.3719 18.2605 71.2985C18.2605 70.5612 18.4098 69.9312 18.7085 69.4085C19.0165 68.8765 19.4178 68.4705 19.9125 68.1905C20.4071 67.9105 20.9345 67.7705 21.4945 67.7705C21.9145 67.7705 22.3018 67.8499 22.6565 68.0085C23.0111 68.1672 23.3051 68.3865 23.5385 68.6665C23.7718 68.9372 23.9165 69.2452 23.9725 69.5905C23.9071 69.9452 23.6925 70.1225 23.3285 70.1225C23.0951 70.1225 22.9178 70.0619 22.7965 69.9405C22.6845 69.8099 22.6051 69.6465 22.5585 69.4505L22.3065 68.5265C22.1758 68.4799 22.0451 68.4519 21.9145 68.4425C21.7931 68.4239 21.6718 68.4145 21.5505 68.4145C20.9531 68.4145 20.4585 68.6479 20.0665 69.1145C19.6838 69.5812 19.4925 70.2625 19.4925 71.1585C19.4925 72.0359 19.7025 72.7079 20.1225 73.1745C20.5425 73.6412 21.0791 73.8745 21.7325 73.8745C22.1338 73.8745 22.5025 73.7859 22.8385 73.6085C23.1745 73.4219 23.4498 73.1559 23.6645 72.8105L24.0145 72.9925C23.8185 73.5712 23.5011 74.0145 23.0625 74.3225C22.6238 74.6305 22.0731 74.7845 21.4105 74.7845ZM24.218 74.6025V74.0985L25.268 73.9025C25.2774 73.5479 25.282 73.1652 25.282 72.7545C25.2914 72.3345 25.296 71.9705 25.296 71.6625V65.5165L24.148 65.3765V64.8865L26.29 64.2565L26.486 64.3685L26.43 66.3565V69.0585C26.7754 68.6759 27.1767 68.3679 27.634 68.1345C28.0914 67.8919 28.544 67.7705 28.992 67.7705C29.5987 67.7705 30.0467 67.9759 30.336 68.3865C30.6347 68.7879 30.784 69.4459 30.784 70.3605V71.6625C30.784 71.9799 30.784 72.3439 30.784 72.7545C30.7934 73.1652 30.8027 73.5479 30.812 73.9025L31.792 74.0985V74.6025H28.544V74.0985L29.566 73.9165C29.5754 73.5619 29.58 73.1792 29.58 72.7685C29.5894 72.3485 29.594 71.9799 29.594 71.6625V70.4725C29.594 69.8285 29.5054 69.3852 29.328 69.1425C29.1507 68.8999 28.8567 68.7785 28.446 68.7785C28.1007 68.7785 27.774 68.8485 27.466 68.9885C27.158 69.1285 26.8267 69.3619 26.472 69.6885V71.6625C26.472 71.9705 26.472 72.3345 26.472 72.7545C26.4814 73.1652 26.4907 73.5479 26.5 73.9025L27.466 74.0985V74.6025H24.218Z" fill="#2683EB"/>
<g filter="url(#filter1_g_13_3814)">
<path d="M143.103 1.50293C169.999 1.50293 194.311 9.29134 211.876 21.8379C229.443 34.3857 240.203 51.6388 240.203 70.6025C240.203 89.5663 229.443 106.819 211.876 119.367C194.311 131.914 169.999 139.702 143.103 139.702C116.207 139.702 91.8948 131.914 74.3296 119.367C56.7629 106.819 46.0034 89.5663 46.0034 70.6025C46.0034 51.6388 56.7629 34.3857 74.3296 21.8379C91.8948 9.29134 116.207 1.50293 143.103 1.50293Z" stroke="#2683EB" stroke-width="1.8"/>
</g>
<path d="M255.068 71.3125C255.068 72.2272 255.25 72.9039 255.614 73.3425C255.987 73.7719 256.454 73.9865 257.014 73.9865C257.322 73.9865 257.592 73.9259 257.826 73.8045C258.068 73.6739 258.32 73.4639 258.582 73.1745V69.2965C258.264 69.0165 257.98 68.8252 257.728 68.7225C257.476 68.6199 257.233 68.5685 257 68.5685C256.654 68.5685 256.332 68.6665 256.034 68.8625C255.744 69.0492 255.511 69.3479 255.334 69.7585C255.156 70.1599 255.068 70.6779 255.068 71.3125ZM258.722 74.7425L258.624 73.7765C258.381 74.0939 258.101 74.3412 257.784 74.5185C257.476 74.6959 257.102 74.7845 256.664 74.7845C256.094 74.7845 255.595 74.6399 255.166 74.3505C254.736 74.0612 254.4 73.6599 254.158 73.1465C253.924 72.6239 253.808 72.0219 253.808 71.3405C253.808 70.6219 253.938 69.9965 254.2 69.4645C254.461 68.9325 254.816 68.5172 255.264 68.2185C255.712 67.9199 256.22 67.7705 256.79 67.7705C257.116 67.7705 257.429 67.8359 257.728 67.9665C258.036 68.0972 258.334 68.3352 258.624 68.6805V65.5165L257.434 65.3765V64.8865L259.618 64.2565L259.814 64.3685L259.758 66.3565V73.9305L260.892 74.0985V74.6025L258.722 74.7425ZM266.248 74.7425C265.912 74.7425 265.632 74.6445 265.408 74.4485C265.184 74.2525 265.044 73.9912 264.988 73.6645C264.606 74.0379 264.27 74.3179 263.98 74.5045C263.691 74.6912 263.341 74.7845 262.93 74.7845C262.417 74.7845 261.974 74.6399 261.6 74.3505C261.236 74.0519 261.054 73.6132 261.054 73.0345C261.054 72.7639 261.115 72.5119 261.236 72.2785C261.367 72.0452 261.6 71.8165 261.936 71.5925C262.272 71.3685 262.753 71.1445 263.378 70.9205C263.593 70.8459 263.84 70.7665 264.12 70.6825C264.4 70.5985 264.68 70.5239 264.96 70.4585V70.1085C264.96 69.4272 264.858 68.9745 264.652 68.7505C264.447 68.5265 264.111 68.4145 263.644 68.4145C263.542 68.4145 263.425 68.4192 263.294 68.4285C263.173 68.4379 263.038 68.4612 262.888 68.4985L262.622 69.4085C262.492 69.8565 262.249 70.0805 261.894 70.0805C261.502 70.0805 261.283 69.8892 261.236 69.5065C261.367 68.9745 261.675 68.5545 262.16 68.2465C262.655 67.9292 263.257 67.7705 263.966 67.7705C264.704 67.7705 265.25 67.9572 265.604 68.3305C265.959 68.6945 266.136 69.3199 266.136 70.2065V73.1885C266.136 73.4872 266.183 73.7019 266.276 73.8325C266.37 73.9539 266.491 74.0145 266.64 74.0145C266.762 74.0145 266.864 73.9865 266.948 73.9305C267.032 73.8745 267.112 73.7999 267.186 73.7065L267.466 74.0145C267.298 74.2852 267.112 74.4765 266.906 74.5885C266.71 74.6912 266.491 74.7425 266.248 74.7425ZM262.3 72.8245C262.3 73.1979 262.408 73.4639 262.622 73.6225C262.837 73.7812 263.103 73.8605 263.42 73.8605C263.56 73.8605 263.691 73.8419 263.812 73.8045C263.943 73.7672 264.097 73.6972 264.274 73.5945C264.452 73.4825 264.68 73.3239 264.96 73.1185V70.9765C264.718 71.0419 264.48 71.1165 264.246 71.2005C264.013 71.2752 263.822 71.3405 263.672 71.3965C263.271 71.5552 262.972 71.7185 262.776 71.8865C262.58 72.0545 262.45 72.2179 262.384 72.3765C262.328 72.5352 262.3 72.6845 262.3 72.8245ZM269.857 74.7845C269.372 74.7845 268.985 74.6539 268.695 74.3925C268.406 74.1312 268.261 73.7299 268.261 73.1885C268.261 73.0112 268.261 72.8385 268.261 72.6705C268.271 72.4932 268.275 72.2692 268.275 71.9985V68.6945H267.113V68.0785L268.359 67.9245L268.723 66.0485H269.563L269.479 67.9525H271.369V68.6945H269.465V73.0345C269.465 73.3892 269.535 73.6505 269.675 73.8185C269.815 73.9772 270.002 74.0565 270.235 74.0565C270.394 74.0565 270.543 74.0239 270.683 73.9585C270.833 73.8932 270.996 73.7999 271.173 73.6785L271.509 74.0425C271.127 74.5372 270.576 74.7845 269.857 74.7845ZM276.804 74.7425C276.468 74.7425 276.188 74.6445 275.964 74.4485C275.74 74.2525 275.6 73.9912 275.544 73.6645C275.161 74.0379 274.825 74.3179 274.536 74.5045C274.247 74.6912 273.897 74.7845 273.486 74.7845C272.973 74.7845 272.529 74.6399 272.156 74.3505C271.792 74.0519 271.61 73.6132 271.61 73.0345C271.61 72.7639 271.671 72.5119 271.792 72.2785C271.923 72.0452 272.156 71.8165 272.492 71.5925C272.828 71.3685 273.309 71.1445 273.934 70.9205C274.149 70.8459 274.396 70.7665 274.676 70.6825C274.956 70.5985 275.236 70.5239 275.516 70.4585V70.1085C275.516 69.4272 275.413 68.9745 275.208 68.7505C275.003 68.5265 274.667 68.4145 274.2 68.4145C274.097 68.4145 273.981 68.4192 273.85 68.4285C273.729 68.4379 273.593 68.4612 273.444 68.4985L273.178 69.4085C273.047 69.8565 272.805 70.0805 272.45 70.0805C272.058 70.0805 271.839 69.8892 271.792 69.5065C271.923 68.9745 272.231 68.5545 272.716 68.2465C273.211 67.9292 273.813 67.7705 274.522 67.7705C275.259 67.7705 275.805 67.9572 276.16 68.3305C276.515 68.6945 276.692 69.3199 276.692 70.2065V73.1885C276.692 73.4872 276.739 73.7019 276.832 73.8325C276.925 73.9539 277.047 74.0145 277.196 74.0145C277.317 74.0145 277.42 73.9865 277.504 73.9305C277.588 73.8745 277.667 73.7999 277.742 73.7065L278.022 74.0145C277.854 74.2852 277.667 74.4765 277.462 74.5885C277.266 74.6912 277.047 74.7425 276.804 74.7425ZM272.856 72.8245C272.856 73.1979 272.963 73.4639 273.178 73.6225C273.393 73.7812 273.659 73.8605 273.976 73.8605C274.116 73.8605 274.247 73.8419 274.368 73.8045C274.499 73.7672 274.653 73.6972 274.83 73.5945C275.007 73.4825 275.236 73.3239 275.516 73.1185V70.9765C275.273 71.0419 275.035 71.1165 274.802 71.2005C274.569 71.2752 274.377 71.3405 274.228 71.3965C273.827 71.5552 273.528 71.7185 273.332 71.8865C273.136 72.0545 273.005 72.2179 272.94 72.3765C272.884 72.5352 272.856 72.6845 272.856 72.8245Z" fill="#2683EB"/>
<g filter="url(#filter2_g_13_3814)">
<path d="M142.603 1.50293C175.118 1.50293 201.703 32.3045 201.703 70.6025C201.703 108.901 175.118 139.702 142.603 139.702C110.088 139.702 83.5033 108.901 83.5033 70.6025C83.5033 32.3045 110.088 1.50293 142.603 1.50293Z" stroke="#2683EB" stroke-width="1.8"/>
</g>
<path d="M116.3 66.6025L110.658 48.6625H114.22L120.122 66.6025H116.3ZM102.962 66.6025L108.864 48.6625H112.218L106.706 66.6025H102.962ZM106.758 62.2085V59.0105H116.326V62.2085H106.758ZM127.042 66.9405C125.776 66.9405 124.65 66.6372 123.662 66.0305C122.674 65.4239 121.902 64.5832 121.348 63.5085C120.81 62.4165 120.542 61.1512 120.542 59.7125C120.542 58.2392 120.819 56.9652 121.374 55.8905C121.928 54.7985 122.7 53.9579 123.688 53.3685C124.676 52.7792 125.802 52.4845 127.068 52.4845C128.333 52.4845 129.451 52.7792 130.422 53.3685C131.392 53.9579 132.146 54.7899 132.684 55.8645C133.238 56.9392 133.516 58.2219 133.516 59.7125C133.516 59.8859 133.507 60.0505 133.49 60.2065C133.49 60.3625 133.49 60.5359 133.49 60.7265H122.7V58.3085H130.942L129.98 59.7125C129.98 58.1699 129.72 57.0692 129.2 56.4105C128.697 55.7345 127.986 55.3965 127.068 55.3965C126.184 55.3965 125.464 55.7345 124.91 56.4105C124.372 57.0692 124.104 58.1699 124.104 59.7125C124.104 61.1512 124.381 62.2172 124.936 62.9105C125.49 63.5865 126.244 63.9245 127.198 63.9245C127.839 63.9245 128.394 63.7772 128.862 63.4825C129.33 63.1879 129.676 62.7285 129.902 62.1045L133.152 63.0405C132.788 64.2192 132.077 65.1639 131.02 65.8745C129.98 66.5852 128.654 66.9405 127.042 66.9405ZM140.758 66.9405C139.302 66.9405 138.158 66.5332 137.326 65.7185C136.494 64.8865 136.078 63.6559 136.078 62.0265V49.9625L139.51 49.2865V61.5845C139.51 62.3125 139.692 62.8585 140.056 63.2225C140.437 63.5865 140.966 63.7685 141.642 63.7685C141.971 63.7685 142.274 63.7425 142.552 63.6905C142.829 63.6212 143.115 63.5519 143.41 63.4825V66.6025C143.011 66.7065 142.604 66.7845 142.188 66.8365C141.772 66.9059 141.295 66.9405 140.758 66.9405ZM134.284 55.7085V52.8225H143.28V55.7085H134.284ZM153.783 66.6025V58.6465C153.783 57.6239 153.531 56.8525 153.029 56.3325C152.526 55.8125 151.902 55.5525 151.157 55.5525C150.411 55.5525 149.787 55.8125 149.285 56.3325C148.782 56.8525 148.531 57.6239 148.531 58.6465H147.777C147.777 57.3465 147.976 56.2372 148.375 55.3185C148.791 54.3999 149.354 53.6979 150.065 53.2125C150.793 52.7272 151.633 52.4845 152.587 52.4845C153.488 52.4845 154.285 52.7099 154.979 53.1605C155.689 53.5939 156.244 54.2179 156.643 55.0325C157.041 55.8299 157.241 56.8005 157.241 57.9445V66.6025H153.783ZM145.073 66.6025V48.0125H148.531V66.6025H145.073ZM165.769 66.9405C164.504 66.9405 163.377 66.6372 162.389 66.0305C161.401 65.4239 160.63 64.5832 160.075 63.5085C159.538 62.4165 159.269 61.1512 159.269 59.7125C159.269 58.2392 159.547 56.9652 160.101 55.8905C160.656 54.7985 161.427 53.9579 162.415 53.3685C163.403 52.7792 164.53 52.4845 165.795 52.4845C167.061 52.4845 168.179 52.7792 169.149 53.3685C170.12 53.9579 170.874 54.7899 171.411 55.8645C171.966 56.9392 172.243 58.2219 172.243 59.7125C172.243 59.8859 172.235 60.0505 172.217 60.2065C172.217 60.3625 172.217 60.5359 172.217 60.7265H161.427V58.3085H169.669L168.707 59.7125C168.707 58.1699 168.447 57.0692 167.927 56.4105C167.425 55.7345 166.714 55.3965 165.795 55.3965C164.911 55.3965 164.192 55.7345 163.637 56.4105C163.1 57.0692 162.831 58.1699 162.831 59.7125C162.831 61.1512 163.109 62.2172 163.663 62.9105C164.218 63.5865 164.972 63.9245 165.925 63.9245C166.567 63.9245 167.121 63.7772 167.589 63.4825C168.057 63.1879 168.404 62.7285 168.629 62.1045L171.879 63.0405C171.515 64.2192 170.805 65.1639 169.747 65.8745C168.707 66.5852 167.381 66.9405 165.769 66.9405ZM174.26 66.6025V52.8225H177.718V66.6025H174.26ZM177.094 60.0505C177.094 58.5252 177.267 57.1992 177.614 56.0725C177.96 54.9285 178.498 54.0445 179.226 53.4205C179.954 52.7965 180.881 52.4845 182.008 52.4845V56.4105H180.5C179.633 56.4105 178.948 56.6359 178.446 57.0865C177.96 57.5199 177.718 58.2825 177.718 59.3745L177.094 60.0505ZM119.186 91.6025V77.5365C119.186 75.9072 119.602 74.6939 120.434 73.8965C121.284 73.0819 122.454 72.6745 123.944 72.6745C124.412 72.6745 124.828 72.7005 125.192 72.7525C125.556 72.8045 125.912 72.8825 126.258 72.9865V75.8985C125.998 75.8119 125.73 75.7512 125.452 75.7165C125.192 75.6645 124.898 75.6385 124.568 75.6385C123.944 75.6385 123.459 75.7945 123.112 76.1065C122.783 76.4012 122.618 76.8345 122.618 77.4065V91.6025H119.186ZM117.392 80.7085V77.8225H128.546V80.7085H117.392ZM127.766 91.6025V77.8225H131.224V91.6025H127.766ZM129.482 76.3405C128.91 76.3405 128.425 76.1585 128.026 75.7945C127.628 75.4132 127.428 74.9105 127.428 74.2865C127.428 73.6625 127.628 73.1685 128.026 72.8045C128.425 72.4232 128.91 72.2325 129.482 72.2325C130.072 72.2325 130.566 72.4232 130.964 72.8045C131.363 73.1685 131.562 73.6625 131.562 74.2865C131.562 74.9105 131.363 75.4132 130.964 75.7945C130.566 76.1585 130.072 76.3405 129.482 76.3405ZM139.743 91.9405C138.478 91.9405 137.351 91.6372 136.363 91.0305C135.375 90.4239 134.604 89.5832 134.049 88.5085C133.512 87.4165 133.243 86.1512 133.243 84.7125C133.243 83.2392 133.521 81.9652 134.075 80.8905C134.63 79.7985 135.401 78.9579 136.389 78.3685C137.377 77.7792 138.504 77.4845 139.769 77.4845C141.035 77.4845 142.153 77.7792 143.123 78.3685C144.094 78.9579 144.848 79.7899 145.385 80.8645C145.94 81.9392 146.217 83.2219 146.217 84.7125C146.217 84.8859 146.209 85.0505 146.191 85.2065C146.191 85.3625 146.191 85.5359 146.191 85.7265H135.401V83.3085H143.643L142.681 84.7125C142.681 83.1699 142.421 82.0692 141.901 81.4105C141.399 80.7345 140.688 80.3965 139.769 80.3965C138.885 80.3965 138.166 80.7345 137.611 81.4105C137.074 82.0692 136.805 83.1699 136.805 84.7125C136.805 86.1512 137.083 87.2172 137.637 87.9105C138.192 88.5865 138.946 88.9245 139.899 88.9245C140.541 88.9245 141.095 88.7772 141.563 88.4825C142.031 88.1879 142.378 87.7285 142.603 87.1045L145.853 88.0405C145.489 89.2192 144.779 90.1639 143.721 90.8745C142.681 91.5852 141.355 91.9405 139.743 91.9405ZM148.234 91.6025V73.0125H151.692V91.6025H148.234ZM159.13 91.9405C158.072 91.9405 157.136 91.6545 156.322 91.0825C155.524 90.4932 154.9 89.6612 154.45 88.5865C154.016 87.5119 153.8 86.2205 153.8 84.7125C153.8 83.2045 154.016 81.9132 154.45 80.8385C154.9 79.7639 155.524 78.9405 156.322 78.3685C157.136 77.7792 158.072 77.4845 159.13 77.4845C160.534 77.4845 161.66 78.0219 162.51 79.0965C163.376 80.1539 163.81 81.6705 163.81 83.6465V85.7785C163.81 87.7372 163.376 89.2539 162.51 90.3285C161.66 91.4032 160.534 91.9405 159.13 91.9405ZM160.352 88.8465C161.253 88.8465 161.972 88.5085 162.51 87.8325C163.064 87.1565 163.342 86.1165 163.342 84.7125C163.342 83.3085 163.064 82.2685 162.51 81.5925C161.972 80.9165 161.253 80.5785 160.352 80.5785C159.45 80.5785 158.722 80.9165 158.168 81.5925C157.63 82.2685 157.362 83.3085 157.362 84.7125C157.362 86.1165 157.63 87.1565 158.168 87.8325C158.722 88.5085 159.45 88.8465 160.352 88.8465ZM163.108 91.6025V88.1185L163.576 84.7125L163.108 81.4365V73.0125H166.566V91.6025H163.108Z" fill="#2683EB"/>
<path d="M141.63 133.636C139.988 133.636 138.599 133.242 137.464 132.455C136.353 131.667 135.519 130.665 134.964 129.448C134.408 128.207 134.13 126.918 134.13 125.582C134.13 124.246 134.408 122.981 134.964 121.788C135.519 120.571 136.353 119.581 137.464 118.817C138.575 118.029 139.964 117.636 141.63 117.636C143.297 117.636 144.686 118.029 145.797 118.817C146.908 119.581 147.741 120.571 148.297 121.788C148.853 123.005 149.13 124.282 149.13 125.618C149.13 126.954 148.853 128.243 148.297 129.484C147.741 130.701 146.908 131.703 145.797 132.49C144.686 133.254 143.297 133.636 141.63 133.636ZM141.63 132.777C143.08 132.777 144.287 132.431 145.254 131.739C146.244 131.047 146.981 130.152 147.464 129.054C147.947 127.956 148.188 126.811 148.188 125.618C148.188 124.425 147.947 123.291 147.464 122.217C146.981 121.12 146.256 120.225 145.29 119.533C144.324 118.841 143.104 118.495 141.63 118.495C140.181 118.495 138.961 118.841 137.971 119.533C137.005 120.225 136.28 121.108 135.797 122.182C135.314 123.255 135.072 124.389 135.072 125.582C135.072 126.775 135.314 127.921 135.797 129.018C136.304 130.116 137.041 131.023 138.007 131.739C138.973 132.431 140.181 132.777 141.63 132.777ZM143.949 130.378C143.49 130.378 143.152 130.247 142.935 129.985C142.717 129.698 142.609 129.352 142.609 128.947V127.193C142.609 126.668 142.5 126.31 142.283 126.119C142.089 125.928 141.715 125.833 141.159 125.833H140.543V129.555L141.775 129.698V130.235H138.152V129.698L139.348 129.555V121.215L138.152 121.072V120.535H141.703C142.766 120.535 143.514 120.821 143.949 121.394C144.384 121.943 144.601 122.504 144.601 123.076C144.601 123.721 144.396 124.282 143.985 124.759C143.599 125.212 143.08 125.439 142.427 125.439H142.319V125.546H142.391C143.309 125.546 143.768 126.047 143.768 127.05V128.696C143.768 128.839 143.78 129.006 143.804 129.197C143.853 129.364 143.985 129.448 144.203 129.448C144.493 129.448 144.638 129.233 144.638 128.804V127.157H145.29V128.947C145.29 129.257 145.205 129.579 145.036 129.913C144.867 130.223 144.505 130.378 143.949 130.378ZM140.543 125.081H141.377C142.029 125.081 142.524 124.962 142.862 124.723C143.2 124.484 143.37 124.043 143.37 123.399V122.933C143.37 121.74 142.705 121.144 141.377 121.144H140.543V125.081Z" fill="#2683EB" stroke="#2683EB" stroke-width="0.2"/>
<path d="M129.919 12.4477C129.657 12.4477 129.391 12.5224 129.121 12.6717C128.859 12.8211 128.631 13.0591 128.435 13.3857C128.248 13.7124 128.127 14.1464 128.071 14.6877H130.619C130.955 14.6877 131.174 14.6177 131.277 14.4777C131.389 14.3377 131.445 14.1651 131.445 13.9597C131.445 13.6891 131.375 13.4417 131.235 13.2177C131.104 12.9844 130.922 12.7977 130.689 12.6577C130.465 12.5177 130.208 12.4477 129.919 12.4477ZM129.905 18.8177C128.962 18.8177 128.206 18.5144 127.637 17.9077C127.067 17.2917 126.783 16.4471 126.783 15.3737C126.783 14.6551 126.927 14.0297 127.217 13.4977C127.515 12.9657 127.907 12.5504 128.393 12.2517C128.887 11.9531 129.424 11.8037 130.003 11.8037C130.488 11.8037 130.927 11.9111 131.319 12.1257C131.711 12.3404 132.023 12.6484 132.257 13.0497C132.49 13.4417 132.607 13.9224 132.607 14.4917C132.607 14.6504 132.597 14.7997 132.579 14.9397C132.56 15.0704 132.537 15.1824 132.509 15.2757H128.043C128.061 16.1344 128.276 16.7877 128.687 17.2357C129.097 17.6837 129.639 17.9077 130.311 17.9077C130.759 17.9077 131.132 17.8191 131.431 17.6417C131.729 17.4551 132.005 17.2171 132.257 16.9277L132.593 17.1937C132.331 17.6884 131.977 18.0851 131.529 18.3837C131.081 18.6731 130.539 18.8177 129.905 18.8177ZM138.417 18.7757C138.081 18.7757 137.801 18.6777 137.577 18.4817C137.353 18.2857 137.213 18.0244 137.157 17.6977C136.774 18.0711 136.438 18.3511 136.149 18.5377C135.859 18.7244 135.509 18.8177 135.099 18.8177C134.585 18.8177 134.142 18.6731 133.769 18.3837C133.405 18.0851 133.223 17.6464 133.223 17.0677C133.223 16.7971 133.283 16.5451 133.405 16.3117C133.535 16.0784 133.769 15.8497 134.105 15.6257C134.441 15.4017 134.921 15.1777 135.547 14.9537C135.761 14.8791 136.009 14.7997 136.289 14.7157C136.569 14.6317 136.849 14.5571 137.129 14.4917V14.1417C137.129 13.4604 137.026 13.0077 136.821 12.7837C136.615 12.5597 136.279 12.4477 135.813 12.4477C135.71 12.4477 135.593 12.4524 135.463 12.4617C135.341 12.4711 135.206 12.4944 135.057 12.5317L134.791 13.4417C134.66 13.8897 134.417 14.1137 134.063 14.1137C133.671 14.1137 133.451 13.9224 133.405 13.5397C133.535 13.0077 133.843 12.5877 134.329 12.2797C134.823 11.9624 135.425 11.8037 136.135 11.8037C136.872 11.8037 137.418 11.9904 137.773 12.3637C138.127 12.7277 138.305 13.3531 138.305 14.2397V17.2217C138.305 17.5204 138.351 17.7351 138.445 17.8657C138.538 17.9871 138.659 18.0477 138.809 18.0477C138.93 18.0477 139.033 18.0197 139.117 17.9637C139.201 17.9077 139.28 17.8331 139.355 17.7397L139.635 18.0477C139.467 18.3184 139.28 18.5097 139.075 18.6217C138.879 18.7244 138.659 18.7757 138.417 18.7757ZM134.469 16.8577C134.469 17.2311 134.576 17.4971 134.791 17.6557C135.005 17.8144 135.271 17.8937 135.589 17.8937C135.729 17.8937 135.859 17.8751 135.981 17.8377C136.111 17.8004 136.265 17.7304 136.443 17.6277C136.62 17.5157 136.849 17.3571 137.129 17.1517V15.0097C136.886 15.0751 136.648 15.1497 136.415 15.2337C136.181 15.3084 135.99 15.3737 135.841 15.4297C135.439 15.5884 135.141 15.7517 134.945 15.9197C134.749 16.0877 134.618 16.2511 134.553 16.4097C134.497 16.5684 134.469 16.7177 134.469 16.8577ZM139.675 18.6357V18.1317L140.683 17.9497C140.693 17.5951 140.697 17.2124 140.697 16.8017C140.707 16.3817 140.711 16.0131 140.711 15.6957V15.0237C140.711 14.6411 140.707 14.3237 140.697 14.0717C140.697 13.8197 140.688 13.5537 140.669 13.2737L139.563 13.1477V12.6577L141.523 11.8037L141.733 11.9437L141.887 13.5957C142.121 13.0357 142.419 12.5971 142.783 12.2797C143.157 11.9624 143.53 11.8037 143.903 11.8037C144.118 11.8037 144.319 11.8504 144.505 11.9437C144.692 12.0371 144.827 12.1631 144.911 12.3217C144.911 13.0031 144.636 13.3437 144.085 13.3437C143.927 13.3437 143.777 13.3157 143.637 13.2597C143.497 13.1944 143.362 13.1057 143.231 12.9937L143.063 12.8397C142.783 13.0451 142.55 13.2971 142.363 13.5957C142.177 13.8944 142.023 14.2444 141.901 14.6457V15.6957C141.901 16.0037 141.901 16.3631 141.901 16.7737C141.911 17.1844 141.92 17.5671 141.929 17.9217L143.077 18.1317V18.6357H139.675ZM147.577 18.8177C147.092 18.8177 146.704 18.6871 146.415 18.4257C146.126 18.1644 145.981 17.7631 145.981 17.2217C145.981 17.0444 145.981 16.8717 145.981 16.7037C145.99 16.5264 145.995 16.3024 145.995 16.0317V12.7277H144.833V12.1117L146.079 11.9577L146.443 10.0817H147.283L147.199 11.9857H149.089V12.7277H147.185V17.0677C147.185 17.4224 147.255 17.6837 147.395 17.8517C147.535 18.0104 147.722 18.0897 147.955 18.0897C148.114 18.0897 148.263 18.0571 148.403 17.9917C148.552 17.9264 148.716 17.8331 148.893 17.7117L149.229 18.0757C148.846 18.5704 148.296 18.8177 147.577 18.8177ZM149.12 18.6357V18.1317L150.17 17.9357C150.179 17.5811 150.184 17.1984 150.184 16.7877C150.193 16.3677 150.198 16.0037 150.198 15.6957V9.54974L149.05 9.40974V8.91974L151.192 8.28974L151.388 8.40174L151.332 10.3897V13.0917C151.677 12.7091 152.078 12.4011 152.536 12.1677C152.993 11.9251 153.446 11.8037 153.894 11.8037C154.5 11.8037 154.948 12.0091 155.238 12.4197C155.536 12.8211 155.686 13.4791 155.686 14.3937V15.6957C155.686 16.0131 155.686 16.3771 155.686 16.7877C155.695 17.1984 155.704 17.5811 155.714 17.9357L156.694 18.1317V18.6357H153.446V18.1317L154.468 17.9497C154.477 17.5951 154.482 17.2124 154.482 16.8017C154.491 16.3817 154.496 16.0131 154.496 15.6957V14.5057C154.496 13.8617 154.407 13.4184 154.23 13.1757C154.052 12.9331 153.758 12.8117 153.348 12.8117C153.002 12.8117 152.676 12.8817 152.368 13.0217C152.06 13.1617 151.728 13.3951 151.374 13.7217V15.6957C151.374 16.0037 151.374 16.3677 151.374 16.7877C151.383 17.1984 151.392 17.5811 151.402 17.9357L152.368 18.1317V18.6357H149.12Z" fill="#2683EB"/>
<defs>
<filter id="filter0_g_13_3814" x="3.31402e-05" y="-0.000455141" width="285.206" height="141.206" filterUnits="userSpaceOnUse" color-interpolation-filters="sRGB">
<feFlood flood-opacity="0" result="BackgroundImageFix"/>
<feBlend mode="normal" in="SourceGraphic" in2="BackgroundImageFix" result="shape"/>
<feTurbulence type="fractalNoise" baseFrequency="0.083333335816860199 0.083333335816860199" numOctaves="3" seed="6885" />
<feDisplacementMap in="shape" scale="1.2059884071350098" xChannelSelector="R" yChannelSelector="G" result="displacedImage" width="100%" height="100%" />
<feMerge result="effect1_texture_13_3814">
<feMergeNode in="displacedImage"/>
</feMerge>
</filter>
<filter id="filter1_g_13_3814" x="44.5" y="-0.000455141" width="197.206" height="141.206" filterUnits="userSpaceOnUse" color-interpolation-filters="sRGB">
<feFlood flood-opacity="0" result="BackgroundImageFix"/>
<feBlend mode="normal" in="SourceGraphic" in2="BackgroundImageFix" result="shape"/>
<feTurbulence type="fractalNoise" baseFrequency="0.083333335816860199 0.083333335816860199" numOctaves="3" seed="6885" />
<feDisplacementMap in="shape" scale="1.2059884071350098" xChannelSelector="R" yChannelSelector="G" result="displacedImage" width="100%" height="100%" />
<feMerge result="effect1_texture_13_3814">
<feMergeNode in="displacedImage"/>
</feMerge>
</filter>
<filter id="filter2_g_13_3814" x="81.9999" y="-0.000455141" width="121.206" height="141.206" filterUnits="userSpaceOnUse" color-interpolation-filters="sRGB">
<feFlood flood-opacity="0" result="BackgroundImageFix"/>
<feBlend mode="normal" in="SourceGraphic" in2="BackgroundImageFix" result="shape"/>
<feTurbulence type="fractalNoise" baseFrequency="0.083333335816860199 0.083333335816860199" numOctaves="3" seed="6885" />
<feDisplacementMap in="shape" scale="1.2059884071350098" xChannelSelector="R" yChannelSelector="G" result="displacedImage" width="100%" height="100%" />
<feMerge result="effect1_texture_13_3814">
<feMergeNode in="displacedImage"/>
</feMerge>
</filter>
</defs>
</svg>
